<svg width="21" height="20" viewBox="0 0 21 20" fill="none" xmlns="http://www.w3.org/2000/svg">
<path d="M16.9516 7.31722L10.7016 13.5672C10.6435 13.6253 10.5746 13.6714 10.4987 13.7029C10.4228 13.7343 10.3415 13.7505 10.2594 13.7505C10.1772 13.7505 10.0959 13.7343 10.02 13.7029C9.94417 13.6714 9.87524 13.6253 9.81719 13.5672L3.56719 7.31722C3.44992 7.19994 3.38403 7.04088 3.38403 6.87503C3.38403 6.70918 3.44992 6.55012 3.56719 6.43284C3.68447 6.31557 3.84353 6.24968 4.00938 6.24968C4.17523 6.24968 4.33429 6.31557 4.45157 6.43284L10.2594 12.2414L16.0672 6.43284C16.1253 6.37477 16.1942 6.32871 16.2701 6.29728C16.3459 6.26586 16.4273 6.24968 16.5094 6.24968C16.5915 6.24968 16.6728 6.26586 16.7487 6.29728C16.8246 6.32871 16.8935 6.37477 16.9516 6.43284C17.0096 6.49091 17.0557 6.55985 17.0871 6.63572C17.1186 6.71159 17.1347 6.79291 17.1347 6.87503C17.1347 6.95715 17.1186 7.03847 17.0871 7.11434C17.0557 7.19021 17.0096 7.25915 16.9516 7.31722Z" fill="#031B15"/>
</svg>
